name C:/MyDriveSym/Projects/mobilecap/Data\Session20210820_0002\mocap\ForceDataProcessed\walking1_forces.mot
datacolumns 19
datarows 19
range 0.34700000 0.35600000
endheader 
time	R_ground_force_vx	R_ground_force_vy	R_ground_force_vz	R_ground_force_px	R_ground_force_py	R_ground_force_pz	R_ground_torque_x	R_ground_torque_y	R_ground_torque_z	L_ground_force_vx	L_ground_force_vy	L_ground_force_vz	L_ground_force_px	L_ground_force_py	L_ground_force_pz	L_ground_torque_x	L_ground_torque_y	L_ground_torque_z	
          0.34700000	        -15.38190100	        694.72109500	        -23.69559400	          0.21074900	          0.00600000	         -0.13493700	          0.00000000	         -3.32815200	          0.00000000	          0.00000000	          0.00000000	          0.00000000	          0.71557300	          0.00000000	         -0.19355300	          0.00000000	          0.00000000	          0.00000000	
          0.34750000	        -15.29605700	        694.93694200	        -23.70163100	          0.21105400	          0.00600000	         -0.13492000	          0.00000000	         -3.33991800	          0.00000000	          0.00000000	          0.00000000	          0.00000000	          0.71557300	          0.00000000	         -0.19355300	          0.00000000	          0.00000000	          0.00000000	
          0.34800000	        -15.20994600	        695.15623300	        -23.70830400	          0.21135900	          0.00600000	         -0.13490400	          0.00000000	         -3.35162700	          0.00000000	          0.00000000	          0.00000000	          0.00000000	          0.71557300	          0.00000000	         -0.19355300	          0.00000000	          0.00000000	          0.00000000	
          0.34850000	        -15.12355900	        695.37897200	        -23.71561200	          0.21166300	          0.00600000	         -0.13488700	          0.00000000	         -3.36327800	          0.00000000	          0.00000000	          0.00000000	          0.00000000	          0.71557300	          0.00000000	         -0.19355300	          0.00000000	          0.00000000	          0.00000000	
          0.34900000	        -15.03688500	        695.60516400	        -23.72355200	          0.21196800	          0.00600000	         -0.13487100	          0.00000000	         -3.37487100	          0.00000000	          0.00000000	          0.00000000	          0.00000000	          0.71557300	          0.00000000	         -0.19355300	          0.00000000	          0.00000000	          0.00000000	
          0.34950000	        -14.94991400	        695.83481500	        -23.73212100	          0.21227300	          0.00600000	         -0.13485500	          0.00000000	         -3.38640400	          0.00000000	          0.00000000	          0.00000000	          0.00000000	          0.71557300	          0.00000000	         -0.19355300	          0.00000000	          0.00000000	          0.00000000	
          0.35000000	        -14.86263600	        696.06792900	        -23.74131600	          0.21257800	          0.00600000	         -0.13483900	          0.00000000	         -3.39787600	          0.00000000	          0.00000000	          0.00000000	          0.00000000	          0.71557300	          0.00000000	         -0.19355300	          0.00000000	          0.00000000	          0.00000000	
          0.35050000	        -14.77504100	        696.30451100	        -23.75113500	          0.21288300	          0.00600000	         -0.13482300	          0.00000000	         -3.40928800	          0.00000000	          0.00000000	          0.00000000	          0.00000000	          0.71557300	          0.00000000	         -0.19355300	          0.00000000	          0.00000000	          0.00000000	
          0.35100000	        -14.68712000	        696.54456600	        -23.76157400	          0.21318800	          0.00600000	         -0.13480700	          0.00000000	         -3.42063800	          0.00000000	          0.00000000	          0.00000000	          0.00000000	          0.71557300	          0.00000000	         -0.19355300	          0.00000000	          0.00000000	          0.00000000	
          0.35150000	        -14.59886300	        696.78810000	        -23.77263100	          0.21349200	          0.00600000	         -0.13479100	          0.00000000	         -3.43192500	          0.00000000	          0.00000000	          0.00000000	          0.00000000	          0.71557300	          0.00000000	         -0.19355300	          0.00000000	          0.00000000	          0.00000000	
          0.35200000	        -14.51026100	        697.03511800	        -23.78430300	          0.21379700	          0.00600000	         -0.13477500	          0.00000000	         -3.44314800	          0.00000000	          0.00000000	          0.00000000	          0.00000000	          0.71557300	          0.00000000	         -0.19355300	          0.00000000	          0.00000000	          0.00000000	
          0.35250000	        -14.42130400	        697.28562500	        -23.79658500	          0.21410200	          0.00600000	         -0.13476000	          0.00000000	         -3.45430800	          0.00000000	          0.00000000	          0.00000000	          0.00000000	          0.71557300	          0.00000000	         -0.19355300	          0.00000000	          0.00000000	          0.00000000	
          0.35300000	        -14.33198200	        697.53962700	        -23.80947500	          0.21440600	          0.00600000	         -0.13474400	          0.00000000	         -3.46540300	          0.00000000	          0.00000000	          0.00000000	          0.00000000	          0.71557300	          0.00000000	         -0.19355300	          0.00000000	          0.00000000	          0.00000000	
          0.35350000	        -14.24228600	        697.79712900	        -23.82296900	          0.21471100	          0.00600000	         -0.13472800	          0.00000000	         -3.47643200	          0.00000000	          0.00000000	          0.00000000	          0.00000000	          0.71557300	          0.00000000	         -0.19355300	          0.00000000	          0.00000000	          0.00000000	
          0.35400000	        -14.15220800	        698.05813600	        -23.83706300	          0.21501500	          0.00600000	         -0.13471300	          0.00000000	         -3.48739500	          0.00000000	          0.00000000	          0.00000000	          0.00000000	          0.71557300	          0.00000000	         -0.19355300	          0.00000000	          0.00000000	          0.00000000	
          0.35450000	        -14.06173800	        698.32265400	        -23.85175300	          0.21531900	          0.00600000	         -0.13469800	          0.00000000	         -3.49829100	          0.00000000	          0.00000000	          0.00000000	          0.00000000	          0.71557300	          0.00000000	         -0.19355300	          0.00000000	          0.00000000	          0.00000000	
          0.35500000	        -13.97086700	        698.59068800	        -23.86703600	          0.21562300	          0.00600000	         -0.13468200	          0.00000000	         -3.50911900	          0.00000000	          0.00000000	          0.00000000	          0.00000000	          0.71557300	          0.00000000	         -0.19355300	          0.00000000	          0.00000000	          0.00000000	
          0.35550000	        -13.87958600	        698.86224400	        -23.88290800	          0.21592700	          0.00600000	         -0.13466700	          0.00000000	         -3.51987900	          0.00000000	          0.00000000	          0.00000000	          0.00000000	          0.71557300	          0.00000000	         -0.19355300	          0.00000000	          0.00000000	          0.00000000	
          0.35600000	        -13.78788600	        699.13732800	        -23.89936400	          0.21623100	          0.00600000	         -0.13465200	          0.00000000	         -3.53057100	          0.00000000	          0.00000000	          0.00000000	          0.00000000	          0.71557300	          0.00000000	         -0.19355300	          0.00000000	          0.00000000	          0.00000000	
